<?xml version="1.0" encoding="utf-8"?>
<!-- Generator: Adobe Illustrator 25.0.1, SVG Export Plug-In . SVG Version: 6.00 Build 0)  -->
<svg version="1.1" id="Layer_1" xmlns="http://www.w3.org/2000/svg" xmlns:xlink="http://www.w3.org/1999/xlink" x="0px" y="0px"
	 viewBox="0 0 91.26 91.26" style="enable-background:new 0 0 91.26 91.26;" xml:space="preserve">
<style type="text/css">
	.st0{fill:#7C4DFF;}
	.st1{fill:none;stroke:#FFFFFF;stroke-width:5;stroke-linecap:round;stroke-miterlimit:10;}
</style>
<path class="st0" d="M79.26,91.26H12c-6.6,0-12-5.4-12-12V12C0,5.4,5.4,0,12,0h67.26c6.6,0,12,5.4,12,12v67.26
	C91.26,85.86,85.86,91.26,79.26,91.26z"/>
<circle class="st1" cx="45.63" cy="45.63" r="33.71"/>
<path class="st1" d="M78.75,51.93c-1.57,0.03-3.88-0.04-6.58-0.62c-6.52-1.4-7.73-4.11-11.83-4.71c-6.45-0.95-7.52,5.15-14.71,5.33
	c-7.87,0.19-10.68-7.02-17-5.16c-2.9,0.85-3.24,2.64-7.58,4.12c-3.36,1.15-6.42,1.19-8.54,1.04"/>
<path class="st1" d="M64.24,33.14c-0.46-0.95-1.4-2.61-3.19-4.11c-1.8-1.51-3.62-2.14-4.64-2.42"/>
</svg>
